<svg xmlns="http://www.w3.org/2000/svg" viewBox="0 0 760 548" width="760" height="548" role="img" aria-label="Goals above replacement: results (filled) vs. expected (hollow)" font-family="'Space Grotesk', ui-sans-serif, system-ui, sans-serif" style="max-width:100%;height:auto;background:#d7d6d3">
<rect width="760" height="548" fill="#d7d6d3"/>
<text x="0" y="20" font-size="17" font-weight="600" fill="#141414">Goals above replacement: results (filled) vs. expected (hollow)</text>
<text x="0" y="38" font-size="12" fill="#575653">Evolving Hockey GAR and xGAR components, 2025-26. A filled dot far from its hollow twin is finishing luck, good or bad.</text>
<circle cx="5" cy="54" r="5" fill="#ce1126"/>
<text x="15" y="58" font-size="12" fill="#141414">Copp</text>
<circle cx="74" cy="54" r="5" fill="#2a78d6"/>
<text x="84" y="58" font-size="12" fill="#141414">Finnie</text>
<circle cx="159" cy="54" r="5" fill="#c98500"/>
<text x="169" y="58" font-size="12" fill="#141414">Kasper</text>
<line x1="276.7" y1="68" x2="276.7" y2="498" stroke="#c4c3bf" stroke-width="1"/>
<text x="276.7" y="64" font-size="10.5" font-family="'IBM Plex Mono', ui-monospace, monospace" fill="#575653" text-anchor="middle">-5</text>
<line x1="410.0" y1="68" x2="410.0" y2="498" stroke="#575653" stroke-width="1"/>
<text x="410.0" y="64" font-size="10.5" font-family="'IBM Plex Mono', ui-monospace, monospace" fill="#575653" text-anchor="middle">+0</text>
<line x1="543.3" y1="68" x2="543.3" y2="498" stroke="#c4c3bf" stroke-width="1"/>
<text x="543.3" y="64" font-size="10.5" font-family="'IBM Plex Mono', ui-monospace, monospace" fill="#575653" text-anchor="middle">+5</text>
<line x1="676.7" y1="68" x2="676.7" y2="498" stroke="#c4c3bf" stroke-width="1"/>
<text x="676.7" y="64" font-size="10.5" font-family="'IBM Plex Mono', ui-monospace, monospace" fill="#575653" text-anchor="middle">+10</text>
<text x="0" y="86" font-size="12" font-weight="600" fill="#141414">Even-strength offense</text>
<line x1="282.0" y1="82" x2="548.7" y2="82" stroke="#ce1126" stroke-width="2" stroke-opacity="0.6"/>
<circle cx="282.0" cy="82" r="5" fill="#d7d6d3" stroke="#ce1126" stroke-width="2"/>
<circle cx="548.7" cy="82" r="5" fill="#ce1126" stroke="#d7d6d3" stroke-width="1.5"/>
<text x="240" y="86" font-size="10.5" font-family="'IBM Plex Mono', ui-monospace, monospace" fill="#575653" text-anchor="end">Copp +5.2 / -4.8</text>
<line x1="415.3" y1="100" x2="452.7" y2="100" stroke="#2a78d6" stroke-width="2" stroke-opacity="0.6"/>
<circle cx="415.3" cy="100" r="5" fill="#d7d6d3" stroke="#2a78d6" stroke-width="2"/>
<circle cx="452.7" cy="100" r="5" fill="#2a78d6" stroke="#d7d6d3" stroke-width="1.5"/>
<text x="240" y="104" font-size="10.5" font-family="'IBM Plex Mono', ui-monospace, monospace" fill="#575653" text-anchor="end">Finnie +1.6 / +0.2</text>
<line x1="340.7" y1="118" x2="399.3" y2="118" stroke="#c98500" stroke-width="2" stroke-opacity="0.6"/>
<circle cx="399.3" cy="118" r="5" fill="#d7d6d3" stroke="#c98500" stroke-width="2"/>
<circle cx="340.7" cy="118" r="5" fill="#c98500" stroke="#d7d6d3" stroke-width="1.5"/>
<text x="240" y="122" font-size="10.5" font-family="'IBM Plex Mono', ui-monospace, monospace" fill="#575653" text-anchor="end">Kasper -2.6 / -0.4</text>
<text x="0" y="154" font-size="12" font-weight="600" fill="#141414">Even-strength defense</text>
<line x1="476.7" y1="150" x2="490.0" y2="150" stroke="#ce1126" stroke-width="2" stroke-opacity="0.6"/>
<circle cx="490.0" cy="150" r="5" fill="#d7d6d3" stroke="#ce1126" stroke-width="2"/>
<circle cx="476.7" cy="150" r="5" fill="#ce1126" stroke="#d7d6d3" stroke-width="1.5"/>
<text x="240" y="154" font-size="10.5" font-family="'IBM Plex Mono', ui-monospace, monospace" fill="#575653" text-anchor="end">Copp +2.5 / +3.0</text>
<line x1="402.0" y1="168" x2="418.0" y2="168" stroke="#2a78d6" stroke-width="2" stroke-opacity="0.6"/>
<circle cx="418.0" cy="168" r="5" fill="#d7d6d3" stroke="#2a78d6" stroke-width="2"/>
<circle cx="402.0" cy="168" r="5" fill="#2a78d6" stroke="#d7d6d3" stroke-width="1.5"/>
<text x="240" y="172" font-size="10.5" font-family="'IBM Plex Mono', ui-monospace, monospace" fill="#575653" text-anchor="end">Finnie -0.3 / +0.3</text>
<line x1="436.7" y1="186" x2="442.0" y2="186" stroke="#c98500" stroke-width="2" stroke-opacity="0.6"/>
<circle cx="442.0" cy="186" r="5" fill="#d7d6d3" stroke="#c98500" stroke-width="2"/>
<circle cx="436.7" cy="186" r="5" fill="#c98500" stroke="#d7d6d3" stroke-width="1.5"/>
<text x="240" y="190" font-size="10.5" font-family="'IBM Plex Mono', ui-monospace, monospace" fill="#575653" text-anchor="end">Kasper +1.0 / +1.2</text>
<text x="0" y="222" font-size="12" font-weight="600" fill="#141414">Power play</text>
<line x1="386.0" y1="218" x2="468.7" y2="218" stroke="#ce1126" stroke-width="2" stroke-opacity="0.6"/>
<circle cx="386.0" cy="218" r="5" fill="#d7d6d3" stroke="#ce1126" stroke-width="2"/>
<circle cx="468.7" cy="218" r="5" fill="#ce1126" stroke="#d7d6d3" stroke-width="1.5"/>
<text x="240" y="222" font-size="10.5" font-family="'IBM Plex Mono', ui-monospace, monospace" fill="#575653" text-anchor="end">Copp +2.2 / -0.9</text>
<line x1="423.3" y1="236" x2="442.0" y2="236" stroke="#2a78d6" stroke-width="2" stroke-opacity="0.6"/>
<circle cx="442.0" cy="236" r="5" fill="#d7d6d3" stroke="#2a78d6" stroke-width="2"/>
<circle cx="423.3" cy="236" r="5" fill="#2a78d6" stroke="#d7d6d3" stroke-width="1.5"/>
<text x="240" y="240" font-size="10.5" font-family="'IBM Plex Mono', ui-monospace, monospace" fill="#575653" text-anchor="end">Finnie +0.5 / +1.2</text>
<line x1="378.0" y1="254" x2="399.3" y2="254" stroke="#c98500" stroke-width="2" stroke-opacity="0.6"/>
<circle cx="399.3" cy="254" r="5" fill="#d7d6d3" stroke="#c98500" stroke-width="2"/>
<circle cx="378.0" cy="254" r="5" fill="#c98500" stroke="#d7d6d3" stroke-width="1.5"/>
<text x="240" y="258" font-size="10.5" font-family="'IBM Plex Mono', ui-monospace, monospace" fill="#575653" text-anchor="end">Kasper -1.2 / -0.4</text>
<text x="0" y="290" font-size="12" font-weight="600" fill="#141414">Penalty kill</text>
<line x1="343.3" y1="286" x2="362.0" y2="286" stroke="#ce1126" stroke-width="2" stroke-opacity="0.6"/>
<circle cx="362.0" cy="286" r="5" fill="#d7d6d3" stroke="#ce1126" stroke-width="2"/>
<circle cx="343.3" cy="286" r="5" fill="#ce1126" stroke="#d7d6d3" stroke-width="1.5"/>
<text x="240" y="290" font-size="10.5" font-family="'IBM Plex Mono', ui-monospace, monospace" fill="#575653" text-anchor="end">Copp -2.5 / -1.8</text>
<line x1="436.7" y1="304" x2="450.0" y2="304" stroke="#2a78d6" stroke-width="2" stroke-opacity="0.6"/>
<circle cx="436.7" cy="304" r="5" fill="#d7d6d3" stroke="#2a78d6" stroke-width="2"/>
<circle cx="450.0" cy="304" r="5" fill="#2a78d6" stroke="#d7d6d3" stroke-width="1.5"/>
<text x="240" y="308" font-size="10.5" font-family="'IBM Plex Mono', ui-monospace, monospace" fill="#575653" text-anchor="end">Finnie +1.5 / +1.0</text>
<line x1="402.0" y1="322" x2="402.0" y2="322" stroke="#c98500" stroke-width="2" stroke-opacity="0.6"/>
<circle cx="402.0" cy="322" r="5" fill="#d7d6d3" stroke="#c98500" stroke-width="2"/>
<circle cx="402.0" cy="322" r="5" fill="#c98500" stroke="#d7d6d3" stroke-width="1.5"/>
<text x="240" y="326" font-size="10.5" font-family="'IBM Plex Mono', ui-monospace, monospace" fill="#575653" text-anchor="end">Kasper -0.3 / -0.3</text>
<text x="0" y="358" font-size="12" font-weight="600" fill="#141414">Penalties, net</text>
<line x1="428.7" y1="354" x2="428.7" y2="354" stroke="#ce1126" stroke-width="2" stroke-opacity="0.6"/>
<circle cx="428.7" cy="354" r="5" fill="#d7d6d3" stroke="#ce1126" stroke-width="2"/>
<circle cx="428.7" cy="354" r="5" fill="#ce1126" stroke="#d7d6d3" stroke-width="1.5"/>
<text x="240" y="358" font-size="10.5" font-family="'IBM Plex Mono', ui-monospace, monospace" fill="#575653" text-anchor="end">Copp +0.7 / +0.7</text>
<line x1="506.0" y1="372" x2="506.0" y2="372" stroke="#2a78d6" stroke-width="2" stroke-opacity="0.6"/>
<circle cx="506.0" cy="372" r="5" fill="#d7d6d3" stroke="#2a78d6" stroke-width="2"/>
<circle cx="506.0" cy="372" r="5" fill="#2a78d6" stroke="#d7d6d3" stroke-width="1.5"/>
<text x="240" y="376" font-size="10.5" font-family="'IBM Plex Mono', ui-monospace, monospace" fill="#575653" text-anchor="end">Finnie +3.6 / +3.6</text>
<line x1="439.3" y1="390" x2="439.3" y2="390" stroke="#c98500" stroke-width="2" stroke-opacity="0.6"/>
<circle cx="439.3" cy="390" r="5" fill="#d7d6d3" stroke="#c98500" stroke-width="2"/>
<circle cx="439.3" cy="390" r="5" fill="#c98500" stroke="#d7d6d3" stroke-width="1.5"/>
<text x="240" y="394" font-size="10.5" font-family="'IBM Plex Mono', ui-monospace, monospace" fill="#575653" text-anchor="end">Kasper +1.1 / +1.1</text>
<text x="0" y="426" font-size="12" font-weight="600" fill="#141414">Total GAR</text>
<line x1="311.3" y1="422" x2="626.0" y2="422" stroke="#ce1126" stroke-width="2" stroke-opacity="0.6"/>
<circle cx="311.3" cy="422" r="5" fill="#d7d6d3" stroke="#ce1126" stroke-width="2"/>
<circle cx="626.0" cy="422" r="5" fill="#ce1126" stroke="#d7d6d3" stroke-width="1.5"/>
<text x="240" y="426" font-size="10.5" font-family="'IBM Plex Mono', ui-monospace, monospace" fill="#575653" text-anchor="end">Copp +8.1 / -3.7</text>
<line x1="580.7" y1="440" x2="591.3" y2="440" stroke="#2a78d6" stroke-width="2" stroke-opacity="0.6"/>
<circle cx="580.7" cy="440" r="5" fill="#d7d6d3" stroke="#2a78d6" stroke-width="2"/>
<circle cx="591.3" cy="440" r="5" fill="#2a78d6" stroke="#d7d6d3" stroke-width="1.5"/>
<text x="240" y="444" font-size="10.5" font-family="'IBM Plex Mono', ui-monospace, monospace" fill="#575653" text-anchor="end">Finnie +6.8 / +6.4</text>
<line x1="356.7" y1="458" x2="439.3" y2="458" stroke="#c98500" stroke-width="2" stroke-opacity="0.6"/>
<circle cx="439.3" cy="458" r="5" fill="#d7d6d3" stroke="#c98500" stroke-width="2"/>
<circle cx="356.7" cy="458" r="5" fill="#c98500" stroke="#d7d6d3" stroke-width="1.5"/>
<text x="240" y="462" font-size="10.5" font-family="'IBM Plex Mono', ui-monospace, monospace" fill="#575653" text-anchor="end">Kasper -2.0 / +1.1</text>
<circle cx="8" cy="514" r="5" fill="#141414"/><text x="18" y="518" font-size="11.5" fill="#141414">GAR (actual goals)</text>
<circle cx="150" cy="514" r="5" fill="#d7d6d3" stroke="#141414" stroke-width="2"/><text x="160" y="518" font-size="11.5" fill="#141414">xGAR (expected goals)</text>
<text x="0" y="540" font-size="10.5" font-family="'IBM Plex Mono', ui-monospace, monospace" fill="#8a8781">Source: Evolving Hockey GAR / xGAR skater tables, 2025-26 regular season. Penalty component is identical in both models.</text>
</svg>