<svg xmlns="http://www.w3.org/2000/svg" viewBox="0 0 760 470" width="760" height="470" role="img" aria-label="2025-26 game by game: 10 minutes in Detroit, 12 in Pittsburgh" font-family="'Space Grotesk', ui-sans-serif, system-ui, sans-serif" style="max-width:100%;height:auto;background:#d7d6d3">
<rect width="760" height="470" fill="#d7d6d3"/>
<text x="0" y="20" font-size="17" font-weight="600" fill="#141414">2025-26 game by game: 10 minutes in Detroit, 12 in Pittsburgh</text>
<text x="0" y="38" font-size="12" fill="#575653">Bars = ice time in every team game (empty slot = did not dress). Below: cumulative goals vs expected goals.</text>
<line x1="46" y1="210.0" x2="746" y2="210.0" stroke="#c4c3bf" stroke-width="1.2"/>
<text x="40.0" y="214.0" font-size="10.5" font-family="'IBM Plex Mono', ui-monospace, monospace" fill="#575653" text-anchor="end">0</text>
<line x1="46" y1="172.5" x2="746" y2="172.5" stroke="#c4c3bf" stroke-width="0.6"/>
<text x="40.0" y="176.5" font-size="10.5" font-family="'IBM Plex Mono', ui-monospace, monospace" fill="#575653" text-anchor="end">4</text>
<line x1="46" y1="135.0" x2="746" y2="135.0" stroke="#c4c3bf" stroke-width="0.6"/>
<text x="40.0" y="139.0" font-size="10.5" font-family="'IBM Plex Mono', ui-monospace, monospace" fill="#575653" text-anchor="end">8</text>
<line x1="46" y1="97.5" x2="746" y2="97.5" stroke="#c4c3bf" stroke-width="0.6"/>
<text x="40.0" y="101.5" font-size="10.5" font-family="'IBM Plex Mono', ui-monospace, monospace" fill="#575653" text-anchor="end">12</text>
<line x1="46" y1="60.0" x2="746" y2="60.0" stroke="#c4c3bf" stroke-width="0.6"/>
<text x="40.0" y="64.0" font-size="10.5" font-family="'IBM Plex Mono', ui-monospace, monospace" fill="#575653" text-anchor="end">16</text>
<rect x="46.6" y="109.5" width="7.1" height="100.5" fill="#ce1126"/>
<rect x="54.9" y="207.0" width="7.1" height="3" fill="#8a8781"/>
<rect x="63.3" y="207.0" width="7.1" height="3" fill="#8a8781"/>
<rect x="71.6" y="123.3" width="7.1" height="86.7" fill="#ce1126"/>
<rect x="79.9" y="128.7" width="7.1" height="81.3" fill="#ce1126"/>
<rect x="88.3" y="207.0" width="7.1" height="3" fill="#8a8781"/>
<rect x="96.6" y="207.0" width="7.1" height="3" fill="#8a8781"/>
<rect x="104.9" y="116.9" width="7.1" height="93.1" fill="#ce1126"/>
<rect x="113.3" y="207.0" width="7.1" height="3" fill="#8a8781"/>
<rect x="121.6" y="96.8" width="7.1" height="113.2" fill="#ce1126"/>
<circle cx="125.2" cy="89.8" r="2.6" fill="#141414"/>
<rect x="129.9" y="111.1" width="7.1" height="98.9" fill="#ce1126"/>
<rect x="138.3" y="95.4" width="7.1" height="114.6" fill="#ce1126"/>
<rect x="146.6" y="110.9" width="7.1" height="99.1" fill="#ce1126"/>
<rect x="154.9" y="123.8" width="7.1" height="86.2" fill="#ce1126"/>
<rect x="163.3" y="113.0" width="7.1" height="97.0" fill="#ce1126"/>
<rect x="171.6" y="103.1" width="7.1" height="106.9" fill="#ce1126"/>
<rect x="179.9" y="207.0" width="7.1" height="3" fill="#8a8781"/>
<rect x="188.3" y="207.0" width="7.1" height="3" fill="#8a8781"/>
<rect x="196.6" y="207.0" width="7.1" height="3" fill="#8a8781"/>
<rect x="204.9" y="207.0" width="7.1" height="3" fill="#8a8781"/>
<rect x="213.3" y="207.0" width="7.1" height="3" fill="#8a8781"/>
<rect x="221.6" y="207.0" width="7.1" height="3" fill="#2a78d6"/>
<rect x="229.9" y="207.0" width="7.1" height="3" fill="#2a78d6"/>
<rect x="238.3" y="104.1" width="7.1" height="105.9" fill="#ce1126"/>
<rect x="246.6" y="207.0" width="7.1" height="3" fill="#8a8781"/>
<rect x="254.9" y="90.8" width="7.1" height="119.2" fill="#ce1126"/>
<rect x="263.3" y="89.8" width="7.1" height="120.2" fill="#ce1126"/>
<rect x="271.6" y="97.0" width="7.1" height="113.0" fill="#ce1126"/>
<rect x="279.9" y="103.9" width="7.1" height="106.1" fill="#ce1126"/>
<rect x="288.3" y="116.4" width="7.1" height="93.6" fill="#ce1126"/>
<rect x="296.6" y="112.0" width="7.1" height="98.0" fill="#ce1126"/>
<rect x="304.9" y="115.1" width="7.1" height="94.9" fill="#ce1126"/>
<rect x="313.3" y="127.2" width="7.1" height="82.8" fill="#ce1126"/>
<rect x="321.6" y="109.5" width="7.1" height="100.5" fill="#ce1126"/>
<rect x="329.9" y="113.2" width="7.1" height="96.8" fill="#ce1126"/>
<rect x="338.3" y="112.2" width="7.1" height="97.8" fill="#ce1126"/>
<circle cx="341.8" cy="105.2" r="2.6" fill="#141414"/>
<rect x="346.6" y="129.7" width="7.1" height="80.3" fill="#ce1126"/>
<rect x="354.9" y="207.0" width="7.1" height="3" fill="#2a78d6"/>
<rect x="363.3" y="123.9" width="7.1" height="86.1" fill="#ce1126"/>
<rect x="371.6" y="207.0" width="7.1" height="3" fill="#2a78d6"/>
<rect x="379.9" y="207.0" width="7.1" height="3" fill="#2a78d6"/>
<rect x="388.3" y="207.0" width="7.1" height="3" fill="#2a78d6"/>
<rect x="396.6" y="207.0" width="7.1" height="3" fill="#2a78d6"/>
<rect x="404.9" y="207.0" width="7.1" height="3" fill="#2a78d6"/>
<rect x="413.3" y="207.0" width="7.1" height="3" fill="#2a78d6"/>
<rect x="421.6" y="86.0" width="7.1" height="124.0" fill="#ce1126"/>
<rect x="429.9" y="118.9" width="7.1" height="91.1" fill="#ce1126"/>
<rect x="438.3" y="86.1" width="7.1" height="123.9" fill="#ce1126"/>
<rect x="446.6" y="98.2" width="7.1" height="111.8" fill="#ce1126"/>
<rect x="454.9" y="101.0" width="7.1" height="109.0" fill="#ce1126"/>
<rect x="463.3" y="87.0" width="7.1" height="123.0" fill="#ce1126"/>
<rect x="471.6" y="114.4" width="7.1" height="95.6" fill="#ce1126"/>
<rect x="479.9" y="114.1" width="7.1" height="95.9" fill="#ce1126"/>
<rect x="488.3" y="101.9" width="7.1" height="108.1" fill="#ce1126"/>
<rect x="496.6" y="102.4" width="7.1" height="107.6" fill="#ce1126"/>
<rect x="504.9" y="107.5" width="7.1" height="102.5" fill="#ce1126"/>
<rect x="513.3" y="134.7" width="7.1" height="75.3" fill="#ce1126"/>
<rect x="521.6" y="117.4" width="7.1" height="92.6" fill="#ce1126"/>
<rect x="529.9" y="139.9" width="7.1" height="70.1" fill="#ce1126"/>
<rect x="538.3" y="207.0" width="7.1" height="3" fill="#8a8781"/>
<rect x="546.6" y="207.0" width="7.1" height="3" fill="#8a8781"/>
<rect x="554.9" y="207.0" width="7.1" height="3" fill="#8a8781"/>
<rect x="563.3" y="207.0" width="7.1" height="3" fill="#8a8781"/>
<rect x="571.6" y="207.0" width="7.1" height="3" fill="#8a8781"/>
<rect x="579.9" y="113.0" width="7.1" height="97.0" fill="#c98500"/>
<rect x="588.3" y="93.9" width="7.1" height="116.1" fill="#c98500"/>
<rect x="596.6" y="86.9" width="7.1" height="123.1" fill="#c98500"/>
<rect x="604.9" y="86.2" width="7.1" height="123.8" fill="#c98500"/>
<rect x="613.3" y="116.2" width="7.1" height="93.8" fill="#c98500"/>
<circle cx="616.8" cy="109.2" r="2.6" fill="#141414"/>
<rect x="621.6" y="116.4" width="7.1" height="93.6" fill="#c98500"/>
<rect x="629.9" y="83.2" width="7.1" height="126.8" fill="#c98500"/>
<rect x="638.3" y="116.0" width="7.1" height="94.0" fill="#c98500"/>
<rect x="646.6" y="109.2" width="7.1" height="100.8" fill="#c98500"/>
<rect x="654.9" y="93.6" width="7.1" height="116.4" fill="#c98500"/>
<rect x="663.3" y="127.5" width="7.1" height="82.5" fill="#c98500"/>
<rect x="671.6" y="101.9" width="7.1" height="108.1" fill="#c98500"/>
<circle cx="675.2" cy="94.9" r="2.6" fill="#141414"/>
<rect x="679.9" y="72.2" width="7.1" height="137.8" fill="#c98500"/>
<rect x="688.3" y="100.1" width="7.1" height="109.9" fill="#c98500"/>
<rect x="696.6" y="85.3" width="7.1" height="124.7" fill="#c98500"/>
<circle cx="700.2" cy="78.3" r="2.6" fill="#141414"/>
<rect x="704.9" y="113.4" width="7.1" height="96.6" fill="#c98500"/>
<circle cx="708.5" cy="106.4" r="2.6" fill="#141414"/>
<rect x="713.3" y="101.9" width="7.1" height="108.1" fill="#c98500"/>
<rect x="721.6" y="65.4" width="7.1" height="144.6" fill="#c98500"/>
<rect x="729.9" y="84.7" width="7.1" height="125.3" fill="#c98500"/>
<rect x="738.3" y="81.4" width="7.1" height="128.6" fill="#c98500"/>
<circle cx="741.8" cy="74.4" r="2.6" fill="#141414"/>
<line x1="571.0" y1="56" x2="571.0" y2="214.0" stroke="#141414" stroke-width="1.2" stroke-dasharray="4 3"/>
<text x="566.0" y="68.0" font-size="10.5" font-family="'IBM Plex Mono', ui-monospace, monospace" fill="#141414" text-anchor="end" font-weight="600">traded Mar 6</text>
<text x="46.0" y="54.0" font-size="10" font-family="'IBM Plex Mono', ui-monospace, monospace" fill="#575653" text-anchor="start">minutes</text>
<rect x="54" y="58" width="11" height="11" rx="2" fill="#ce1126"/>
<text x="70" y="68" font-size="12" fill="#141414">Detroit</text>
<rect x="141" y="58" width="11" height="11" rx="2" fill="#c98500"/>
<text x="157" y="68" font-size="12" fill="#141414">Pittsburgh</text>
<rect x="46" y="218.0" width="11" height="11" rx="2" fill="#8a8781"/>
<text x="62" y="228.0" font-size="12" fill="#141414">scratched</text>
<rect x="147" y="218.0" width="11" height="11" rx="2" fill="#2a78d6"/>
<text x="163" y="228.0" font-size="12" fill="#141414">injured / IR</text>
<circle cx="274" cy="224.0" r="5" fill="#141414"/>
<text x="285" y="228.0" font-size="12" fill="#141414">goal</text>
<text x="746.0" y="228.0" font-size="10.5" font-family="'IBM Plex Mono', ui-monospace, monospace" fill="#141414" text-anchor="end">DET: 39 of 63 games, 10:41 avg  |  PIT: 20 of 21, 11:57 avg</text>
<line x1="46" y1="410.0" x2="746" y2="410.0" stroke="#c4c3bf" stroke-width="1.2"/>
<text x="40.0" y="414.0" font-size="10.5" font-family="'IBM Plex Mono', ui-monospace, monospace" fill="#575653" text-anchor="end">0</text>
<line x1="46" y1="363.3" x2="746" y2="363.3" stroke="#c4c3bf" stroke-width="0.6"/>
<text x="40.0" y="367.3" font-size="10.5" font-family="'IBM Plex Mono', ui-monospace, monospace" fill="#575653" text-anchor="end">3</text>
<line x1="46" y1="316.7" x2="746" y2="316.7" stroke="#c4c3bf" stroke-width="0.6"/>
<text x="40.0" y="320.7" font-size="10.5" font-family="'IBM Plex Mono', ui-monospace, monospace" fill="#575653" text-anchor="end">6</text>
<line x1="46" y1="270.0" x2="746" y2="270.0" stroke="#c4c3bf" stroke-width="0.6"/>
<text x="40.0" y="274.0" font-size="10.5" font-family="'IBM Plex Mono', ui-monospace, monospace" fill="#575653" text-anchor="end">9</text>
<line x1="508.7" y1="266" x2="508.7" y2="410.0" stroke="#141414" stroke-width="1.2" stroke-dasharray="4 3"/>
<path d="M51.9,409.7 L63.8,409.2 L75.7,402.9 L87.5,402.9 L99.4,400.0 L111.3,398.8 L123.1,395.4 L135.0,393.8 L146.8,392.4 L158.7,391.9 L170.6,388.4 L182.4,388.0 L194.3,379.6 L206.2,375.3 L218.0,373.8 L229.9,373.1 L241.8,373.1 L253.6,364.9 L265.5,362.2 L277.4,362.2 L289.2,361.4 L301.1,361.2 L312.9,355.2 L324.8,354.4 L336.7,354.4 L348.5,352.1 L360.4,351.2 L372.3,351.2 L384.1,347.6 L396.0,345.7 L407.9,342.5 L419.7,337.8 L431.6,337.8 L443.5,337.4 L455.3,337.4 L467.2,337.3 L479.1,337.0 L490.9,337.0 L502.8,337.0 L514.6,329.2 L526.5,319.2 L538.4,319.1 L550.2,318.4 L562.1,313.9 L574.0,311.0 L585.8,310.6 L597.7,309.7 L609.6,308.5 L621.4,308.0 L633.3,305.9 L645.2,301.2 L657.0,299.1 L668.9,298.1 L680.7,294.3 L692.6,294.0 L704.5,294.0 L716.3,292.9 L728.2,290.1 L740.1,286.4" fill="none" stroke="#b3b1ad" stroke-width="2.5"/>
<path d="M51.9,410.0 L63.8,410.0 L75.7,410.0 L87.5,410.0 L99.4,394.4 L111.3,394.4 L123.1,394.4 L135.0,394.4 L146.8,394.4 L158.7,394.4 L170.6,394.4 L182.4,394.4 L194.3,394.4 L206.2,394.4 L218.0,394.4 L229.9,394.4 L241.8,394.4 L253.6,394.4 L265.5,394.4 L277.4,394.4 L289.2,394.4 L301.1,394.4 L312.9,378.9 L324.8,378.9 L336.7,378.9 L348.5,378.9 L360.4,378.9 L372.3,378.9 L384.1,378.9 L396.0,378.9 L407.9,378.9 L419.7,378.9 L431.6,378.9 L443.5,378.9 L455.3,378.9 L467.2,378.9 L479.1,378.9 L490.9,378.9 L502.8,378.9 L514.6,378.9 L526.5,378.9 L538.4,378.9 L550.2,378.9 L562.1,363.3 L574.0,363.3 L585.8,363.3 L597.7,363.3 L609.6,363.3 L621.4,363.3 L633.3,363.3 L645.2,347.8 L657.0,347.8 L668.9,347.8 L680.7,332.2 L692.6,316.7 L704.5,316.7 L716.3,316.7 L728.2,316.7 L740.1,301.1" fill="none" stroke="#141414" stroke-width="2.5"/>
<text x="46.0" y="264.0" font-size="10" font-family="'IBM Plex Mono', ui-monospace, monospace" fill="#575653" text-anchor="start">cumulative, games played (regular season)</text>
<text x="498.8" y="372.9" font-size="10.5" font-family="'IBM Plex Mono', ui-monospace, monospace" fill="#ce1126" text-anchor="end" font-weight="600" stroke="#d7d6d3" stroke-width="3" paint-order="stroke">DET: 2 goals on 4.7 expected</text>
<text x="668.9" y="307.3" font-size="10.5" font-family="'IBM Plex Mono', ui-monospace, monospace" fill="#c98500" text-anchor="end" font-weight="600" stroke="#d7d6d3" stroke-width="3" paint-order="stroke">PIT: 5 on 3.3</text>
<text x="742.1" y="279.6" font-size="10.5" font-family="'IBM Plex Mono', ui-monospace, monospace" fill="#575653" text-anchor="end" stroke="#d7d6d3" stroke-width="3" paint-order="stroke">ixG 7.9</text>
<line x1="44" y1="424.0" x2="58" y2="424.0" stroke="#141414" stroke-width="2.5"/>
<text x="62" y="428.0" font-size="12" fill="#141414">goals</text>
<line x1="117" y1="424.0" x2="131" y2="424.0" stroke="#b3b1ad" stroke-width="2.5"/>
<text x="135" y="428.0" font-size="12" fill="#141414">expected goals (MoneyPuck)</text>
<text x="746.0" y="428.0" font-size="10.5" font-family="'IBM Plex Mono', ui-monospace, monospace" fill="#141414" text-anchor="end">last 10 Detroit games: 0 points, 0.7 ixG total</text>
<text x="0" y="462" font-size="10.5" font-family="'IBM Plex Mono', ui-monospace, monospace" fill="#8a8781">NHL API game logs + schedules; MoneyPuck shot file 2025-26. Regular season only.</text>
</svg>